<svg version="1.1" xmlns="http://www.w3.org/2000/svg" xmlns:xlink="http://www.w3.org/1999/xlink" width="16" height="16" viewBox="0,0,256,256"><g fill="#ffffff" fill-rule="evenodd" stroke="none" stroke-width="1" stroke-linecap="butt" stroke-linejoin="miter" stroke-miterlimit="10" stroke-dasharray="" stroke-dashoffset="0" font-family="none" font-weight="none" font-size="none" text-anchor="none" style="mix-blend-mode: normal"><g transform="translate(0,0.288) scale(16,16)"><path d="M1.114,8.063v-0.163c1.005,-0.102 1.497,-0.615 1.497,-1.6v-1.797c0,-1.094 0.39,-1.538 1.354,-1.538h0.273v-0.965h-0.376c-1.612,0 -2.372,0.759 -2.372,2.352v1.524c0,1.094 -0.376,1.456 -1.49,1.456v1.299c1.114,0 1.49,0.362 1.49,1.456v1.524c0,1.593 0.759,2.352 2.372,2.352h0.376v-0.964h-0.273c-0.964,0 -1.354,-0.444 -1.354,-1.538v-1.798c0,-0.984 -0.492,-1.497 -1.497,-1.6M14.886,7.9v0.164c-1.005,0.103 -1.497,0.616 -1.497,1.6v1.798c0,1.094 -0.39,1.538 -1.354,1.538h-0.273v0.964h0.376c1.613,0 2.372,-0.759 2.372,-2.352v-1.524c0,-1.094 0.376,-1.456 1.49,-1.456v-1.3c-1.114,0 -1.49,-0.362 -1.49,-1.456v-1.524c0,-1.593 -0.76,-2.352 -2.372,-2.352h-0.376v0.964h0.273c0.964,0 1.354,0.444 1.354,1.538v1.798c0,0.984 0.492,1.497 1.497,1.6M7.5,11.5v-2.293l-1.621,1.621l-0.707,-0.707l1.62,-1.621h-2.292v-1h2.293l-1.621,-1.621l0.707,-0.707l1.621,1.62v-2.292h1v2.293l1.621,-1.621l0.707,0.707l-1.62,1.621h2.292v1h-2.293l1.621,1.621l-0.707,0.707l-1.621,-1.62v2.292z"></path></g></g></svg>