<svg version="1.1" xmlns="http://www.w3.org/2000/svg" xmlns:xlink="http://www.w3.org/1999/xlink" width="16" height="16" viewBox="0,0,256,256"><g fill="#ffffff" fill-rule="nonzero" stroke="none" stroke-width="1" stroke-linecap="butt" stroke-linejoin="miter" stroke-miterlimit="10" stroke-dasharray="" stroke-dashoffset="0" font-family="none" font-weight="none" font-size="none" text-anchor="none" style="mix-blend-mode: normal"><g transform="translate(0,-4) scale(16,16)"><path d="M0,4c0,0 0,-2 2,-2h12c0,0 2,0 2,2v6c0,0 0,2 -2,2h-4c0,0.66667 0.08333,1.16667 0.25,1.5h0.75c0.27614,0 0.5,0.22386 0.5,0.5c0,0.27614 -0.22386,0.5 -0.5,0.5h-6c-0.27614,0 -0.5,-0.22386 -0.5,-0.5c0,-0.27614 0.22386,-0.5 0.5,-0.5h0.75c0.16667,-0.33333 0.25,-0.83333 0.25,-1.5h-4c0,0 -2,0 -2,-2zM1.398,3.145c-0.10978,0.07655 -0.1974,0.18073 -0.254,0.302c-0.08424,0.17649 -0.13316,0.36774 -0.144,0.563v5.99c0,0.325 0.078,0.502 0.145,0.602c0.07,0.104 0.17067,0.18867 0.302,0.254c0.16884,0.08082 0.35132,0.12932 0.538,0.143l0.025,0.001h11.99c0.325,0 0.502,-0.078 0.602,-0.145c0.10978,-0.07655 0.1974,-0.18073 0.254,-0.302c0.08082,-0.16884 0.12932,-0.35132 0.143,-0.538l0.001,-0.025v-5.99c0,-0.325 -0.078,-0.502 -0.145,-0.602c-0.07655,-0.10978 -0.18073,-0.1974 -0.302,-0.254c-0.17649,-0.08424 -0.36774,-0.13316 -0.563,-0.144h-11.99c-0.325,0 -0.502,0.078 -0.602,0.145"></path></g></g></svg>